# Blender v2.80 (sub 75) OBJ File: 'SocietyofPenguins.blend'
# www.blender.org
mtllib slope.mtl
o Plane.001
v 4.455700 1.071757 17.711903
v 5.810522 1.073942 17.711903
v 3.623585 0.858913 17.711903
v 1.880728 0.437231 17.457947
v -1.814812 -0.034721 17.465406
v 6.430296 0.871096 17.711903
v 7.306356 0.005105 17.687389
v 4.433506 0.883698 18.096285
v 5.788329 0.885883 18.096285
v 3.601392 0.681684 18.096285
v 1.933342 0.302186 18.096285
v -1.825033 -0.034721 18.045069
v 6.408102 0.699512 18.096285
v 7.263419 -0.003001 18.097513
v 4.448731 -0.015013 18.637039
v 5.777110 -0.015013 18.637039
v 3.589565 -0.015013 18.637039
v 1.921039 -0.015013 18.637039
v -1.739147 -0.034721 18.616858
v 6.396984 -0.015013 18.633179
v 7.000130 -0.015012 18.571400
v 4.455700 1.071757 11.162831
v 5.810522 1.073942 11.162831
v 4.468529 1.075977 14.437366
v 5.796907 1.078890 14.437366
v 3.623585 0.858913 11.162831
v 3.609363 0.863308 14.437366
v 1.880728 0.437231 11.416787
v 2.040017 0.463833 14.437366
v -1.814812 -0.034721 11.409327
v -1.740412 -0.034721 14.437366
v 6.430296 0.871096 11.162831
v 6.438467 0.865203 14.437366
v 7.306356 0.005105 11.187345
v 7.275487 0.038315 14.437366
v 4.433506 0.883698 10.778448
v 5.788329 0.885883 10.778448
v 3.601392 0.681684 10.778448
v 1.933342 0.302186 10.778448
v -1.825033 -0.034721 10.829664
v 6.408102 0.699512 10.778448
v 7.263419 -0.003001 10.777219
v 4.448731 -0.015013 10.237695
v 5.777110 -0.015013 10.237695
v 3.589565 -0.015013 10.237695
v 1.921039 -0.015013 10.237695
v -1.739147 -0.034721 10.257875
v 6.396984 -0.015013 10.241555
v 7.000130 -0.015012 10.303334
vt 0.889856 0.699207
vt 0.500000 0.846099
vt 0.500000 0.700656
vt 0.500000 0.604361
vt 0.889856 0.605872
vt 0.859621 0.410637
vt 0.500000 0.009263
vt 0.860509 0.001119
vt 0.889856 0.847537
vt 0.500000 0.914073
vt 0.886938 1.000000
vt 0.500000 0.996971
vt 0.889856 0.913241
vt 0.935619 0.843123
vt 0.935619 0.909000
vt 0.929522 0.000000
vt 0.935619 0.414971
vt 0.935766 0.995214
vt 0.935619 0.694792
vt 0.935619 0.601572
vt 0.992185 0.966266
vt 0.997597 0.009401
vt 1.000000 0.410277
vt 1.000000 0.686974
vt 1.000000 0.832387
vt 0.999540 0.900242
vt 1.000000 0.592924
vt 0.110144 0.699207
vt 0.110144 0.847537
vt 0.140379 0.410637
vt 0.110144 0.605872
vt 0.500000 0.428355
vt 0.113062 1.000000
vt 0.110144 0.913241
vt 0.064380 0.843123
vt 0.070478 0.000000
vt 0.139491 0.001119
vt 0.064380 0.909000
vt 0.064380 0.694793
vt 0.064380 0.414971
vt 0.007815 0.966266
vt 0.064234 0.995214
vt 0.002403 0.009402
vt 0.000000 0.686974
vt 0.064380 0.601572
vt 0.000000 0.832387
vt 0.000000 0.592924
vt 0.000460 0.900242
vt 0.000000 0.410277
vn -0.1189 0.9685 0.2187
vn 0.1586 0.9873 0.0000
vn -0.1218 0.9925 0.0000
vn -0.2422 0.9702 0.0000
vn -0.2340 0.9504 0.2049
vn -0.1792 0.9787 0.0995
vn -0.1284 0.9917 0.0000
vn -0.1267 0.9919 -0.0027
vn 0.1524 0.9630 0.2220
vn 0.5231 0.8522 0.0000
vn 0.6768 0.7329 0.0690
vn 0.7028 0.7114 0.0000
vn 0.5001 0.8438 0.1947
vn 0.1110 0.7424 0.6606
vn 0.3671 0.7357 0.5691
vn -0.1071 0.9941 0.0177
vn -0.1021 0.9140 0.3927
vn 0.6222 0.7578 0.1964
vn -0.0948 0.7456 0.6596
vn -0.1601 0.7629 0.6263
vn 0.4050 0.7147 0.5702
vn -0.0825 0.9947 0.0618
vn -0.0038 0.8626 0.5059
vn -0.0301 0.5405 0.8408
vn 0.0312 0.5408 0.8405
vn 0.0422 0.5997 0.7990
vn -0.0551 0.6460 0.7613
vn -0.1189 0.9685 -0.2187
vn 0.1524 0.9630 -0.2220
vn -0.1792 0.9787 -0.0995
vn -0.2340 0.9504 -0.2049
vn -0.1910 0.9816 0.0000
vn 0.6768 0.7329 -0.0690
vn 0.5001 0.8438 -0.1947
vn 0.1110 0.7424 -0.6606
vn -0.1071 0.9941 -0.0177
vn -0.1267 0.9919 0.0027
vn 0.3671 0.7357 -0.5691
vn -0.0948 0.7456 -0.6596
vn -0.1021 0.9140 -0.3927
vn 0.4050 0.7147 -0.5702
vn 0.6222 0.7578 -0.1964
vn -0.0825 0.9947 -0.0618
vn -0.0301 0.5405 -0.8408
vn -0.1601 0.7629 -0.6263
vn 0.0312 0.5408 -0.8405
vn -0.0551 0.6460 -0.7613
vn 0.0422 0.5997 -0.7990
vn -0.0038 0.8626 -0.5059
usemtl Snow
s 1
f 1/1/1 25/2/2 24/3/3
f 1/1/1 27/4/4 3/5/5
f 27/4/4 4/6/6 3/5/5
f 4/6/6 31/7/7 5/8/8
f 2/9/9 33/10/10 25/2/2
f 33/10/10 7/11/11 35/12/12
f 6/13/13 9/14/14 13/15/15
f 4/6/6 12/16/16 11/17/17
f 7/11/11 13/15/15 14/18/18
f 3/5/5 8/19/19 1/1/1
f 1/1/1 9/14/14 2/9/9
f 3/5/5 11/17/17 10/20/20
f 13/15/15 21/21/21 14/18/18
f 11/17/17 19/22/22 18/23/23
f 10/20/20 15/24/24 8/19/19
f 13/15/15 16/25/25 20/26/26
f 11/17/17 17/27/27 10/20/20
f 9/14/14 15/24/24 16/25/25
f 22/28/28 25/2/2 23/29/29
f 22/28/28 27/4/4 24/3/3
f 28/30/30 27/4/4 26/31/31
f 28/30/30 31/7/7 29/32/32
f 33/10/10 23/29/29 25/2/2
f 33/10/10 34/33/33 32/34/34
f 32/34/34 37/35/35 23/29/29
f 28/30/30 40/36/36 30/37/37
f 34/33/33 41/38/38 32/34/34
f 36/39/39 26/31/31 22/28/28
f 37/35/35 22/28/28 23/29/29
f 26/31/31 39/40/40 28/30/30
f 49/41/41 41/38/38 42/42/42
f 39/40/40 47/43/43 40/36/36
f 43/44/44 38/45/45 36/39/39
f 41/38/38 44/46/46 37/35/35
f 45/47/47 39/40/40 38/45/45
f 37/35/35 43/44/44 36/39/39
f 1/1/1 2/9/9 25/2/2
f 1/1/1 24/3/3 27/4/4
f 27/4/4 29/32/32 4/6/6
f 4/6/6 29/32/32 31/7/7
f 2/9/9 6/13/13 33/10/10
f 33/10/10 6/13/13 7/11/11
f 6/13/13 2/9/9 9/14/14
f 4/6/6 5/8/8 12/16/16
f 7/11/11 6/13/13 13/15/15
f 3/5/5 10/20/20 8/19/19
f 1/1/1 8/19/19 9/14/14
f 3/5/5 4/6/6 11/17/17
f 13/15/15 20/26/26 21/21/21
f 11/17/17 12/16/16 19/22/22
f 10/20/20 17/27/27 15/24/24
f 13/15/15 9/14/14 16/25/25
f 11/17/17 18/23/23 17/27/27
f 9/14/14 8/19/19 15/24/24
f 22/28/28 24/3/3 25/2/2
f 22/28/28 26/31/31 27/4/4
f 28/30/30 29/32/32 27/4/4
f 28/30/30 30/37/37 31/7/7
f 33/10/10 32/34/34 23/29/29
f 33/10/10 35/12/12 34/33/33
f 32/34/34 41/38/38 37/35/35
f 28/30/30 39/40/40 40/36/36
f 34/33/33 42/42/42 41/38/38
f 36/39/39 38/45/45 26/31/31
f 37/35/35 36/39/39 22/28/28
f 26/31/31 38/45/45 39/40/40
f 49/41/41 48/48/48 41/38/38
f 39/40/40 46/49/49 47/43/43
f 43/44/44 45/47/47 38/45/45
f 41/38/38 48/48/48 44/46/46
f 45/47/47 46/49/49 39/40/40
f 37/35/35 44/46/46 43/44/44
